<?xml version="1.0" encoding="UTF-8" standalone="no"?>
<svg
   xmlns:dc="http://purl.org/dc/elements/1.1/"
   xmlns:cc="http://creativecommons.org/ns#"
   xmlns:rdf="http://www.w3.org/1999/02/22-rdf-syntax-ns#"
   xmlns:svg="http://www.w3.org/2000/svg"
   xmlns="http://www.w3.org/2000/svg"
   width="3.149611in"
   x="0px"
   version="1.1"
   y="0px"
   height="1.4173194in"
   viewBox="0 0 226.77207 102.04696"
   xml:space="preserve"
   id="svg26834"><metadata
   id="metadata26840"><rdf:RDF><cc:Work
       rdf:about=""><dc:format>image/svg+xml</dc:format><dc:type
         rdf:resource="http://purl.org/dc/dcmitype/StillImage" /><dc:title></dc:title></cc:Work></rdf:RDF></metadata><defs
   id="defs26838">
  
  
 
   
   
   
   
   
   
   
   
   
   
   
   
   
   
   
   
   
  
    
    
    
    
    
    
    
    
    
    
    
    
    
    
    
    
    
    
    
    
    
    
    
    
    
    
    
    
    
    
    
    
    
    
    
    
    
   
     
     
     
     
     
     
     
     
     
     
     
     
     
     
     
     
     
     
     
     
     
     
     
     
     
     
     
     
     
     
     
     
    </defs>
 <path
   style="fill:#1f7a34"
   id="path26593"
   d="M 0,0 V 102.047 H 226.772 V 0 Z m 113.029,2.081 c 0.766,0 1.387,0.621 1.387,1.387 0,0.766 -0.621,1.387 -1.387,1.387 -0.766,0 -1.387,-0.621 -1.387,-1.387 0,-0.766 0.622,-1.387 1.387,-1.387 z m -71.999,0 c 0.766,0 1.387,0.621 1.387,1.387 0,0.766 -0.621,1.387 -1.387,1.387 -0.766,0 -1.387,-0.621 -1.387,-1.387 0,-0.766 0.622,-1.387 1.387,-1.387 z m -7.2,0 c 0.766,0 1.387,0.621 1.387,1.387 0,0.766 -0.621,1.387 -1.387,1.387 -0.766,0 -1.387,-0.621 -1.387,-1.387 0,-0.766 0.621,-1.387 1.387,-1.387 z M 6.542,3.736 c 1.576,0 2.854,1.277 2.854,2.854 0,1.577 -1.278,2.853 -2.854,2.853 -1.576,0 -2.854,-1.277 -2.854,-2.853 0,-1.576 1.278,-2.854 2.854,-2.854 z m 0.003,94.603 c -1.576,0 -2.854,-1.278 -2.854,-2.854 0,-1.576 1.278,-2.854 2.854,-2.854 1.576,0 2.854,1.277 2.854,2.854 -10e-4,1.576 -1.278,2.854 -2.854,2.854 z M 19.43,4.854 c -0.766,0 -1.387,-0.621 -1.387,-1.387 0,-0.766 0.621,-1.387 1.387,-1.387 0.766,0 1.387,0.621 1.387,1.387 0,0.766 -0.622,1.387 -1.387,1.387 z m 5.813,-1.386 c 0,-0.766 0.621,-1.387 1.387,-1.387 0.766,0 1.387,0.621 1.387,1.387 0,0.766 -0.621,1.387 -1.387,1.387 -0.766,0 -1.387,-0.622 -1.387,-1.387 z M 43.219,89.84 H 26.886 v -4.816 h 16.333 z m 0,-72.817 H 26.886 v -4.816 h 16.333 z m 5.01,-12.169 c -0.766,0 -1.387,-0.621 -1.387,-1.387 0,-0.766 0.621,-1.387 1.387,-1.387 0.766,0 1.387,0.621 1.387,1.387 0,0.766 -0.621,1.387 -1.387,1.387 z m 7.201,0 c -0.766,0 -1.387,-0.621 -1.387,-1.387 0,-0.766 0.621,-1.387 1.387,-1.387 0.766,0 1.387,0.621 1.387,1.387 0,0.766 -0.622,1.387 -1.387,1.387 z m 7.2,0 c -0.766,0 -1.387,-0.621 -1.387,-1.387 0,-0.766 0.621,-1.387 1.387,-1.387 0.766,0 1.387,0.621 1.387,1.387 0,0.766 -0.621,1.387 -1.387,1.387 z m 7.2,0 c -0.766,0 -1.387,-0.621 -1.387,-1.387 0,-0.766 0.621,-1.387 1.387,-1.387 0.766,0 1.387,0.621 1.387,1.387 0,0.766 -0.621,1.387 -1.387,1.387 z m 7.199,0 c -0.766,0 -1.387,-0.621 -1.387,-1.387 0,-0.766 0.621,-1.387 1.387,-1.387 0.766,0 1.387,0.621 1.387,1.387 0,0.766 -0.621,1.387 -1.387,1.387 z m 7.2,0 c -0.766,0 -1.387,-0.621 -1.387,-1.387 0,-0.766 0.621,-1.387 1.387,-1.387 0.766,0 1.387,0.621 1.387,1.387 0,0.766 -0.621,1.387 -1.387,1.387 z m 7.201,0 c -0.766,0 -1.387,-0.621 -1.387,-1.387 0,-0.766 0.621,-1.387 1.387,-1.387 0.766,0 1.387,0.621 1.387,1.387 0,0.766 -0.622,1.387 -1.387,1.387 z m 7.2,0 c -0.766,0 -1.387,-0.621 -1.387,-1.387 0,-0.766 0.621,-1.387 1.387,-1.387 0.766,0 1.387,0.621 1.387,1.387 0,0.766 -0.621,1.387 -1.387,1.387 z m 5.812,-1.386 c 0,-0.766 0.621,-1.387 1.387,-1.387 0.766,0 1.387,0.621 1.387,1.387 0,0.766 -0.621,1.387 -1.387,1.387 -0.766,0 -1.387,-0.622 -1.387,-1.387 z m 17.111,86.372 h -16.334 v -4.816 h 16.334 z m 0,-72.817 h -16.334 v -4.816 h 16.334 z M 120.229,4.854 c -0.766,0 -1.387,-0.621 -1.387,-1.387 0,-0.766 0.621,-1.387 1.387,-1.387 0.766,0 1.387,0.621 1.387,1.387 0,0.766 -0.621,1.387 -1.387,1.387 z m 7.201,0 c -0.766,0 -1.387,-0.621 -1.387,-1.387 0,-0.766 0.621,-1.387 1.387,-1.387 0.766,0 1.387,0.621 1.387,1.387 0,0.766 -0.621,1.387 -1.387,1.387 z m 72.455,84.986 h -16.332 v -4.816 h 16.332 z m 0,-72.817 h -16.332 v -4.816 h 16.332 z M 220.208,3.731 c 1.576,0 2.854,1.277 2.854,2.854 0,1.577 -1.277,2.854 -2.854,2.854 -1.577,0 -2.855,-1.277 -2.855,-2.854 0,-1.577 1.278,-2.854 2.855,-2.854 z m 0,94.609 c -1.576,0 -2.854,-1.277 -2.854,-2.854 0,-1.575 1.277,-2.854 2.854,-2.854 1.577,0 2.855,1.278 2.855,2.854 0,1.576 -1.279,2.854 -2.855,2.854 z" /><g
   id="g26597">
     <path
   style="fill:#9a916c"
   id="path26595"
   d="m 1.581,6.59 c 0,2.737 2.223,4.961 4.96,4.961 2.742,0 4.961,-2.224 4.961,-4.961 0,-2.741 -2.219,-4.96 -4.961,-4.96 -2.737,0 -4.96,2.219 -4.96,4.96 z m 2.107,0 c 0,-1.576 1.278,-2.854 2.854,-2.854 1.576,0 2.854,1.277 2.854,2.854 0,1.577 -1.279,2.853 -2.855,2.853 -1.575,0 -2.853,-1.277 -2.853,-2.853 z" />
    </g><g
   id="g26603">
     <g
   id="g26601">
      <path
   style="fill:#9a916c"
   id="path26599"
   d="m 225.168,95.486 c 0,-2.737 -2.223,-4.961 -4.961,-4.961 -2.742,0 -4.961,2.224 -4.961,4.961 0,2.741 2.219,4.96 4.961,4.96 2.739,0 4.961,-2.218 4.961,-4.96 z m -2.105,0 c 0,1.576 -1.279,2.854 -2.855,2.854 -1.576,0 -2.854,-1.277 -2.854,-2.854 0,-1.575 1.277,-2.854 2.854,-2.854 1.577,0 2.855,1.279 2.855,2.854 z" />
     </g>
    </g><g
   id="g26609">
     <g
   id="g26607">
      <path
   style="fill:#9a916c"
   id="path26605"
   d="m 1.584,95.485 c 0,2.737 2.223,4.961 4.96,4.961 2.742,0 4.961,-2.224 4.961,-4.961 0,-2.741 -2.219,-4.96 -4.961,-4.96 -2.737,0 -4.96,2.219 -4.96,4.96 z m 2.106,0 c 0,-1.576 1.278,-2.854 2.854,-2.854 1.576,0 2.854,1.277 2.854,2.854 0,1.575 -1.278,2.854 -2.854,2.854 -1.575,0 -2.854,-1.278 -2.854,-2.854 z" />
     </g>
    </g><path
   style="fill:#303030"
   id="path26611"
   d="m 216.992,65.168 c -0.734,0 -1.336,-0.602 -1.336,-1.337 V 38.009 c 0,-0.735 0.602,-1.337 1.336,-1.337 h 0.057 v -20.05 -0.698 h -0.699 l -2.049,-2.049 V 13.162 H 213.588 12.04 11.327 v 0.713 L 9.279,15.923 H 8.58 v 0.698 20.051 h 0.057 c 0.735,0 1.337,0.602 1.337,1.337 v 25.822 c 0,0.735 -0.602,1.337 -1.337,1.337 H 8.58 v 20.049 0.698 h 0.699 l 2.049,2.049 v 0.713 h 0.713 201.547 0.713 v -0.713 l 2.049,-2.049 h 0.699 V 85.217 65.168 Z" /><g
   id="g26619">
     <path
   style="fill:#87ad34"
   id="path26613"
   d="m 208.663,71.382 c 0,2.206 -1.805,4.011 -4.012,4.011 H 22.12 c -2.206,0 -4.011,-1.805 -4.011,-4.011 V 30.665 c 0,-2.206 1.805,-4.011 4.011,-4.011 h 182.531 c 2.207,0 4.012,1.805 4.012,4.011 z" />
     <g
   style="opacity:0.2"
   id="g26617">
      <path
   style="fill:#22420d"
   id="path26615"
   d="m 208.655,30.646 v 40.755 c 0,-0.006 0.002,-0.012 0.002,-0.019 V 30.665 c 0,-0.007 -0.002,-0.013 -0.002,-0.019 z M 22.12,26.654 c -2.205,0 -4.011,1.806 -4.011,4.011 v 40.717 c 0,2.205 1.806,4.011 4.011,4.011 h 2.326 c -2.206,0 -4.011,-1.806 -4.011,-4.011 V 32.003 c 0,-2.206 1.805,-4.011 4.011,-4.011 h 183.165 c -0.735,-0.814 -1.787,-1.338 -2.964,-1.338 z" />
     </g>
    </g><g
   id="g26625">
     <path
   style="fill:#1a1a1a"
   id="path26621"
   d="m 210.358,18.618 c 0,-0.735 -0.602,-1.336 -1.336,-1.336 H 17.75 c -0.735,0 -1.336,0.602 -1.336,1.336 v 0.737 c 0,0.735 0.602,1.336 1.336,1.336 h 191.271 c 0.734,0 1.336,-0.602 1.336,-1.336 v -0.737 z" />
     <path
   style="fill:#424242"
   id="path26623"
   d="m 209.69,19.812 c 0,-0.484 -0.432,-0.88 -0.957,-0.88 H 18.117 c -0.526,0 -0.957,0.396 -0.957,0.88 0,0.484 0.431,0.88 0.957,0.88 h 190.616 c 0.525,-0.001 0.957,-0.397 0.957,-0.88 z" />
    </g><g
   id="g26631">
     <path
   style="fill:#1a1a1a"
   id="path26627"
   d="m 210.358,82.056 c 0,-0.734 -0.602,-1.336 -1.336,-1.336 H 17.75 c -0.735,0 -1.336,0.602 -1.336,1.336 v 0.738 c 0,0.734 0.602,1.336 1.336,1.336 h 191.271 c 0.734,0 1.336,-0.602 1.336,-1.336 v -0.738 z" />
     <path
   style="fill:#424242"
   id="path26629"
   d="m 209.69,83.251 c 0,-0.484 -0.432,-0.88 -0.957,-0.88 H 18.117 c -0.526,0 -0.957,0.396 -0.957,0.88 0,0.483 0.431,0.879 0.957,0.879 h 190.616 c 0.525,0 0.957,-0.396 0.957,-0.879 z" />
    </g><g
   id="g26637">
     <line
   style="fill:none;stroke:#f2f2f2;stroke-width:0.2358;stroke-linecap:round;stroke-opacity:0.2"
   id="line26633"
   x2="12.05"
   y2="14.06"
   x1="9.9370003"
   y1="16.173" />
     <line
   style="fill:none;stroke:#f2f2f2;stroke-width:0.2358;stroke-linecap:round;stroke-opacity:0.2"
   id="line26635"
   x2="9.9589996"
   y2="85.862999"
   x1="12.072"
   y1="87.976997" />
    </g><g
   id="g26643">
     <line
   style="fill:none;stroke:#f2f2f2;stroke-width:0.2358;stroke-linecap:round;stroke-opacity:0.2"
   id="line26639"
   x2="214.709"
   y2="14.06"
   x1="216.823"
   y1="16.173" />
     <line
   style="fill:none;stroke:#f2f2f2;stroke-width:0.2358;stroke-linecap:round;stroke-opacity:0.2"
   id="line26641"
   x2="216.80099"
   y2="85.862999"
   x1="214.688"
   y1="87.976997" />
    </g><path
   style="fill:none;stroke:#1a1a1a;stroke-width:1.41499996;stroke-opacity:0.4"
   id="path26645"
   d="m 208.657,71.382 c 0,2.205 -1.805,4.011 -4.01,4.011 H 22.12 c -2.205,0 -4.011,-1.806 -4.011,-4.011 V 30.665 c 0,-2.205 1.806,-4.011 4.011,-4.011 h 182.527 c 2.205,0 4.01,1.806 4.01,4.011 z" /><g
   id="g26649">
     <path
   style="fill:#9a916c"
   id="path26647"
   d="m 215.247,6.585 c 0,2.737 2.223,4.961 4.961,4.961 2.742,0 4.961,-2.224 4.961,-4.961 0,-2.741 -2.219,-4.96 -4.961,-4.96 -2.739,0 -4.961,2.219 -4.961,4.96 z m 2.105,0 c 0,-1.576 1.279,-2.854 2.855,-2.854 1.576,0 2.854,1.277 2.854,2.854 0,1.577 -1.277,2.854 -2.854,2.854 -1.577,0 -2.855,-1.278 -2.855,-2.854 z" />
    </g><g
   id="g26653">
     <path
   style="fill:#9a916c"
   id="path26651"
   d="m 17.02,0 v 4.75 c 0,1.33 1.078,2.41 2.41,2.41 1.33,0 2.41,-1.08 2.41,-2.41 V 0 Z m 2.41,4.854 c -0.766,0 -1.387,-0.621 -1.387,-1.387 0,-0.766 0.621,-1.387 1.387,-1.387 0.766,0 1.387,0.621 1.387,1.387 0,0.766 -0.622,1.387 -1.387,1.387 z" />
    </g><g
   id="g26657">
     <path
   style="fill:#9a916c"
   id="path26655"
   d="m 24.22,0 v 4.75 c 0,1.33 1.078,2.41 2.41,2.41 1.33,0 2.41,-1.08 2.41,-2.41 V 0 Z m 2.41,4.854 c -0.766,0 -1.387,-0.621 -1.387,-1.387 0,-0.766 0.621,-1.387 1.387,-1.387 0.766,0 1.387,0.621 1.387,1.387 0,0.766 -0.621,1.387 -1.387,1.387 z" />
    </g><g
   id="g26661">
     <path
   style="fill:#9a916c"
   id="path26659"
   d="m 31.42,0 v 4.75 c 0,1.33 1.078,2.41 2.41,2.41 1.33,0 2.41,-1.08 2.41,-2.41 V 0 Z m 2.41,4.854 c -0.766,0 -1.387,-0.621 -1.387,-1.387 0,-0.766 0.621,-1.387 1.387,-1.387 0.766,0 1.387,0.621 1.387,1.387 0,0.766 -0.621,1.387 -1.387,1.387 z" />
    </g><g
   id="g26665">
     <path
   style="fill:#9a916c"
   id="path26663"
   d="m 38.62,0 v 4.75 c 0,1.33 1.078,2.41 2.41,2.41 1.33,0 2.41,-1.08 2.41,-2.41 V 0 Z m 2.41,4.854 c -0.766,0 -1.387,-0.621 -1.387,-1.387 0,-0.766 0.621,-1.387 1.387,-1.387 0.766,0 1.387,0.621 1.387,1.387 0,0.766 -0.621,1.387 -1.387,1.387 z" />
    </g><g
   id="g26669">
     <path
   style="fill:#9a916c"
   id="path26667"
   d="m 45.819,0 v 4.75 c 0,1.33 1.078,2.41 2.41,2.41 1.33,0 2.41,-1.08 2.41,-2.41 V 0 Z m 2.41,4.854 c -0.766,0 -1.387,-0.621 -1.387,-1.387 0,-0.766 0.621,-1.387 1.387,-1.387 0.766,0 1.387,0.621 1.387,1.387 0,0.766 -0.621,1.387 -1.387,1.387 z" />
    </g><g
   id="g26673">
     <path
   style="fill:#9a916c"
   id="path26671"
   d="m 53.02,0 v 4.75 c 0,1.33 1.078,2.41 2.41,2.41 1.33,0 2.41,-1.08 2.41,-2.41 V 0 Z m 2.41,4.854 c -0.766,0 -1.387,-0.621 -1.387,-1.387 0,-0.766 0.621,-1.387 1.387,-1.387 0.766,0 1.387,0.621 1.387,1.387 0,0.766 -0.622,1.387 -1.387,1.387 z" />
    </g><g
   id="g26677">
     <path
   style="fill:#9a916c"
   id="path26675"
   d="m 60.22,0 v 4.75 c 0,1.33 1.078,2.41 2.41,2.41 1.33,0 2.41,-1.08 2.41,-2.41 V 0 Z m 2.41,4.854 c -0.766,0 -1.387,-0.621 -1.387,-1.387 0,-0.766 0.621,-1.387 1.387,-1.387 0.766,0 1.387,0.621 1.387,1.387 0,0.766 -0.621,1.387 -1.387,1.387 z" />
    </g><g
   id="g26681">
     <path
   style="fill:#9a916c"
   id="path26679"
   d="m 67.42,0 v 4.75 c 0,1.33 1.078,2.41 2.41,2.41 1.33,0 2.41,-1.08 2.41,-2.41 V 0 Z m 2.41,4.854 c -0.766,0 -1.387,-0.621 -1.387,-1.387 0,-0.766 0.621,-1.387 1.387,-1.387 0.766,0 1.387,0.621 1.387,1.387 0,0.766 -0.621,1.387 -1.387,1.387 z" />
    </g><g
   id="g26685">
     <path
   style="fill:#9a916c"
   id="path26683"
   d="m 74.619,0 v 4.75 c 0,1.33 1.078,2.41 2.41,2.41 1.33,0 2.41,-1.08 2.41,-2.41 V 0 Z m 2.41,4.854 c -0.766,0 -1.387,-0.621 -1.387,-1.387 0,-0.766 0.621,-1.387 1.387,-1.387 0.766,0 1.387,0.621 1.387,1.387 0,0.766 -0.621,1.387 -1.387,1.387 z" />
    </g><g
   id="g26689">
     <path
   style="fill:#9a916c"
   id="path26687"
   d="m 81.819,0 v 4.75 c 0,1.33 1.078,2.41 2.41,2.41 1.33,0 2.41,-1.08 2.41,-2.41 V 0 Z m 2.41,4.854 c -0.766,0 -1.387,-0.621 -1.387,-1.387 0,-0.766 0.621,-1.387 1.387,-1.387 0.766,0 1.387,0.621 1.387,1.387 0,0.766 -0.621,1.387 -1.387,1.387 z" />
    </g><g
   id="g26693">
     <path
   style="fill:#9a916c"
   id="path26691"
   d="m 89.02,0 v 4.75 c 0,1.33 1.078,2.41 2.41,2.41 1.33,0 2.41,-1.08 2.41,-2.41 V 0 Z m 2.41,4.854 c -0.766,0 -1.387,-0.621 -1.387,-1.387 0,-0.766 0.621,-1.387 1.387,-1.387 0.766,0 1.387,0.621 1.387,1.387 0,0.766 -0.622,1.387 -1.387,1.387 z" />
    </g><g
   id="g26697">
     <path
   style="fill:#9a916c"
   id="path26695"
   d="m 96.22,0 v 4.75 c 0,1.33 1.078,2.41 2.41,2.41 1.33,0 2.41,-1.08 2.41,-2.41 V 0 Z m 2.41,4.854 c -0.766,0 -1.387,-0.621 -1.387,-1.387 0,-0.766 0.621,-1.387 1.387,-1.387 0.766,0 1.387,0.621 1.387,1.387 0,0.766 -0.621,1.387 -1.387,1.387 z" />
    </g><g
   id="g26701">
     <path
   style="fill:#9a916c"
   id="path26699"
   d="m 103.419,0 v 4.75 c 0,1.33 1.078,2.41 2.41,2.41 1.33,0 2.41,-1.08 2.41,-2.41 V 0 Z m 2.41,4.854 c -0.766,0 -1.387,-0.621 -1.387,-1.387 0,-0.766 0.621,-1.387 1.387,-1.387 0.766,0 1.387,0.621 1.387,1.387 0,0.766 -0.621,1.387 -1.387,1.387 z" />
    </g><g
   id="g26705">
     <path
   style="fill:#9a916c"
   id="path26703"
   d="m 110.619,0 v 4.75 c 0,1.33 1.078,2.41 2.41,2.41 1.33,0 2.411,-1.08 2.411,-2.41 V 0 Z m 2.41,4.854 c -0.766,0 -1.387,-0.621 -1.387,-1.387 0,-0.766 0.621,-1.387 1.387,-1.387 0.766,0 1.387,0.621 1.387,1.387 0,0.766 -0.621,1.387 -1.387,1.387 z" />
    </g><g
   id="g26709">
     <path
   style="fill:#9a916c"
   id="path26707"
   d="m 117.819,0 v 4.75 c 0,1.33 1.078,2.41 2.41,2.41 1.33,0 2.41,-1.08 2.41,-2.41 V 0 Z m 2.41,4.854 c -0.766,0 -1.387,-0.621 -1.387,-1.387 0,-0.766 0.621,-1.387 1.387,-1.387 0.766,0 1.387,0.621 1.387,1.387 0,0.766 -0.621,1.387 -1.387,1.387 z" />
    </g><g
   id="g26713">
     <path
   style="fill:#9a916c"
   id="path26711"
   d="m 125.02,0 v 4.75 c 0,1.33 1.078,2.41 2.41,2.41 1.33,0 2.41,-1.08 2.41,-2.41 V 0 Z m 2.41,4.854 c -0.766,0 -1.387,-0.621 -1.387,-1.387 0,-0.766 0.621,-1.387 1.387,-1.387 0.766,0 1.387,0.621 1.387,1.387 0,0.766 -0.621,1.387 -1.387,1.387 z" />
    </g><rect
   width="10.027"
   x="27.790001"
   y="51.369999"
   height="16.521999"
   id="rect26715"
   style="fill:#1a1a1a;fill-opacity:0.1" /><rect
   width="10.027"
   x="38.534"
   y="51.369999"
   height="16.521999"
   id="rect26717"
   style="fill:#1a1a1a;fill-opacity:0.1" /><rect
   width="10.027"
   x="49.278"
   y="51.369999"
   height="16.521999"
   id="rect26719"
   style="fill:#1a1a1a;fill-opacity:0.1" /><rect
   width="10.028"
   x="60.021999"
   y="51.369999"
   height="16.521999"
   id="rect26721"
   style="fill:#1a1a1a;fill-opacity:0.1" /><rect
   width="10.027"
   x="70.767998"
   y="51.369999"
   height="16.521999"
   id="rect26723"
   style="fill:#1a1a1a;fill-opacity:0.1" /><rect
   width="10.027"
   x="81.512001"
   y="51.369999"
   height="16.521999"
   id="rect26725"
   style="fill:#1a1a1a;fill-opacity:0.1" /><rect
   width="10.027"
   x="92.255997"
   y="51.369999"
   height="16.521999"
   id="rect26727"
   style="fill:#1a1a1a;fill-opacity:0.1" /><rect
   width="10.027"
   x="103"
   y="51.369999"
   height="16.521999"
   id="rect26729"
   style="fill:#1a1a1a;fill-opacity:0.1" /><rect
   width="10.028"
   x="113.744"
   y="51.369999"
   height="16.521999"
   id="rect26731"
   style="fill:#1a1a1a;fill-opacity:0.1" /><rect
   width="10.027"
   x="124.489"
   y="51.369999"
   height="16.521999"
   id="rect26733"
   style="fill:#1a1a1a;fill-opacity:0.1" /><rect
   width="10.027"
   x="135.233"
   y="51.369999"
   height="16.521999"
   id="rect26735"
   style="fill:#1a1a1a;fill-opacity:0.1" /><rect
   width="10.027"
   x="145.97701"
   y="51.369999"
   height="16.521999"
   id="rect26737"
   style="fill:#1a1a1a;fill-opacity:0.1" /><rect
   width="10.027"
   x="156.72099"
   y="51.369999"
   height="16.521999"
   id="rect26739"
   style="fill:#1a1a1a;fill-opacity:0.1" /><rect
   width="10.027"
   x="167.465"
   y="51.369999"
   height="16.521999"
   id="rect26741"
   style="fill:#1a1a1a;fill-opacity:0.1" /><rect
   width="10.027"
   x="178.209"
   y="51.369999"
   height="16.521999"
   id="rect26743"
   style="fill:#1a1a1a;fill-opacity:0.1" /><rect
   width="10.027"
   x="188.95399"
   y="51.369999"
   height="16.521999"
   id="rect26745"
   style="fill:#1a1a1a;fill-opacity:0.1" /><rect
   width="10.027"
   x="27.790001"
   y="34.153999"
   height="16.521999"
   id="rect26747"
   style="fill:#1a1a1a;fill-opacity:0.1" /><rect
   width="10.027"
   x="38.534"
   y="34.153999"
   height="16.521999"
   id="rect26749"
   style="fill:#1a1a1a;fill-opacity:0.1" /><rect
   width="10.027"
   x="49.278"
   y="34.153999"
   height="16.521999"
   id="rect26751"
   style="fill:#1a1a1a;fill-opacity:0.1" /><rect
   width="10.028"
   x="60.021999"
   y="34.153999"
   height="16.521999"
   id="rect26753"
   style="fill:#1a1a1a;fill-opacity:0.1" /><rect
   width="10.027"
   x="70.767998"
   y="34.153999"
   height="16.521999"
   id="rect26755"
   style="fill:#1a1a1a;fill-opacity:0.1" /><rect
   width="10.027"
   x="81.512001"
   y="34.153999"
   height="16.521999"
   id="rect26757"
   style="fill:#1a1a1a;fill-opacity:0.1" /><rect
   width="10.027"
   x="92.255997"
   y="34.153999"
   height="16.521999"
   id="rect26759"
   style="fill:#1a1a1a;fill-opacity:0.1" /><rect
   width="10.027"
   x="103"
   y="34.153999"
   height="16.521999"
   id="rect26761"
   style="fill:#1a1a1a;fill-opacity:0.1" /><rect
   width="10.028"
   x="113.744"
   y="34.153999"
   height="16.521999"
   id="rect26763"
   style="fill:#1a1a1a;fill-opacity:0.1" /><rect
   width="10.027"
   x="124.489"
   y="34.153999"
   height="16.521999"
   id="rect26765"
   style="fill:#1a1a1a;fill-opacity:0.1" /><rect
   width="10.027"
   x="135.233"
   y="34.153999"
   height="16.521999"
   id="rect26767"
   style="fill:#1a1a1a;fill-opacity:0.1" /><rect
   width="10.027"
   x="145.97701"
   y="34.153999"
   height="16.521999"
   id="rect26769"
   style="fill:#1a1a1a;fill-opacity:0.1" /><rect
   width="10.027"
   x="156.72099"
   y="34.153999"
   height="16.521999"
   id="rect26771"
   style="fill:#1a1a1a;fill-opacity:0.1" /><rect
   width="10.027"
   x="167.465"
   y="34.153999"
   height="16.521999"
   id="rect26773"
   style="fill:#1a1a1a;fill-opacity:0.1" /><rect
   width="10.027"
   x="178.209"
   y="34.153999"
   height="16.521999"
   id="rect26775"
   style="fill:#1a1a1a;fill-opacity:0.1" /><rect
   width="10.027"
   x="188.95399"
   y="34.153999"
   height="16.521999"
   id="rect26777"
   style="fill:#1a1a1a;fill-opacity:0.1" /><g
   id="g26785">
     <path
   style="fill:#606060"
   id="path26781"
   d="M 9.454,65.223 V 86.02 H 9.722 V 65.168 c -0.083,0.035 -0.178,0.037 -0.268,0.055 z" />
     <path
   style="fill:#606060"
   id="path26783"
   d="M 9.722,36.881 V 16.026 H 9.454 v 20.8 c 0.09,0.018 0.185,0.02 0.268,0.055 z" />
    </g><rect
   style="fill:#606060"
   id="rect26787"
   height="0.26699999"
   y="13.572"
   x="11.9"
   width="202.96899" /><rect
   style="fill:#212121"
   id="rect26789"
   height="0.30399999"
   y="13.27"
   x="11.9"
   width="202.96899" /><g
   id="g26795">
     <path
   style="fill:#212121"
   id="path26791"
   d="m 9.208,36.776 c 0.087,0 0.164,0.034 0.247,0.05 v -20.8 H 9.152 v 20.75 z" />
     <path
   style="fill:#212121"
   id="path26793"
   d="M 9.208,65.272 H 9.152 V 86.02 H 9.455 V 65.222 c -0.083,0.016 -0.16,0.05 -0.247,0.05 z" />
    </g><rect
   style="fill:#212121"
   id="rect26797"
   height="0.303"
   y="88.480003"
   x="11.9"
   width="202.96899" /><rect
   style="fill:#606060"
   id="rect26799"
   height="0.26699999"
   y="88.214996"
   x="11.9"
   width="202.96899" /><g
   id="g26805">
     <path
   style="fill:#212121"
   id="path26801"
   d="m 217.563,65.272 c -0.089,0 -0.166,-0.034 -0.25,-0.051 V 86.02 h 0.305 V 65.272 Z" />
     <path
   style="fill:#212121"
   id="path26803"
   d="m 217.563,36.776 h 0.055 v -20.75 h -0.305 v 20.801 c 0.084,-0.016 0.161,-0.051 0.25,-0.051 z" />
    </g><g
   id="g26811">
     <path
   style="fill:#606060"
   id="path26807"
   d="M 217.049,65.168 V 86.02 h 0.266 V 65.222 c -0.089,-0.017 -0.184,-0.019 -0.266,-0.054 z" />
     <path
   style="fill:#606060"
   id="path26809"
   d="m 217.315,36.827 v -20.8 h -0.266 v 20.854 c 0.082,-0.035 0.177,-0.037 0.266,-0.054 z" />
    </g><circle
   cx="19.43"
   cy="3.4679999"
   id="connector0pin"
   r="1.387" /><circle
   cx="26.629999"
   cy="3.4679999"
   id="connector1pin"
   r="1.387" /><circle
   cx="33.830002"
   cy="3.4679999"
   id="connector2pin"
   r="1.387" /><circle
   cx="41.029999"
   cy="3.4679999"
   id="connector3pin"
   r="1.387" /><circle
   cx="48.229"
   cy="3.4679999"
   id="connector4pin"
   r="1.387" /><circle
   cx="55.43"
   cy="3.4679999"
   id="connector5pin"
   r="1.387" /><path
   id="connector6pin"
   d="m 61.243,3.468 c 0,-0.766 0.621,-1.387 1.387,-1.387 0.766,0 1.387,0.621 1.387,1.387 0,0.766 -0.621,1.387 -1.387,1.387 -0.766,0 -1.387,-0.622 -1.387,-1.387" /><circle
   cx="69.830002"
   cy="3.4679999"
   id="connector7pin"
   r="1.387" /><circle
   cx="77.028999"
   cy="3.4679999"
   id="connector8pin"
   r="1.387" /><circle
   cx="84.228996"
   cy="3.4679999"
   id="connector9pin"
   r="1.387" /><circle
   cx="91.43"
   cy="3.4679999"
   id="connector10pin"
   r="1.387" /><circle
   cx="98.629997"
   cy="3.4679999"
   id="connector11pin"
   r="1.387" /><circle
   cx="105.829"
   cy="3.4679999"
   id="connector12pin"
   r="1.387" /><circle
   cx="113.029"
   cy="3.4679999"
   id="connector13pin"
   r="1.387" /><circle
   cx="120.229"
   cy="3.4679999"
   id="connector14pin"
   r="1.387" /><circle
   cx="127.43"
   cy="3.4679999"
   id="connector15pin"
   r="1.387" /><g
   id="Ebene_2" />
<text
   transform="scale(1.0178429,0.98246988)"
   id="text5660"
   y="47.327698"
   x="26.735466"
   style="font-style:normal;font-weight:normal;font-size:82.39974213px;line-height:125%;font-family:sans-serif;letter-spacing:0px;word-spacing:0px;fill:#000000;fill-opacity:1;stroke:none;stroke-width:2.05999351px;stroke-linecap:butt;stroke-linejoin:miter;stroke-opacity:1"
   xml:space="preserve"><tspan
     id="tspan10120"
     style="font-size:16.47994804px;stroke-width:2.05999351px"
     y="47.327698"
     x="26.735466">HD44780U</tspan></text>
<text
   transform="scale(1.0178429,0.98246989)"
   id="text5660-3"
   y="66.071938"
   x="26.890709"
   style="font-style:normal;font-weight:normal;font-size:82.39974213px;line-height:125%;font-family:sans-serif;letter-spacing:0px;word-spacing:0px;fill:#000000;fill-opacity:1;stroke:none;stroke-width:2.05999351px;stroke-linecap:butt;stroke-linejoin:miter;stroke-opacity:1"
   xml:space="preserve"><tspan
     id="tspan10120-6"
     style="font-size:16.47994804px;stroke-width:2.05999351px"
     y="66.071938"
     x="26.890709">2x16 - 8bits</tspan></text>
<flowRoot
   style="font-style:normal;font-weight:normal;font-size:30px;line-height:125%;font-family:sans-serif;letter-spacing:0px;word-spacing:0px;fill:#000000;fill-opacity:1;stroke:none;stroke-width:0.75px;stroke-linecap:butt;stroke-linejoin:miter;stroke-opacity:1"
   id="flowRoot10142"
   xml:space="preserve"><flowRegion
     style="stroke-width:0.75px"
     id="flowRegion10144"><rect
       style="stroke-width:0.5625px"
       y="-128.10745"
       x="133.54643"
       height="106.35005"
       width="215.94743"
       id="rect10146" /></flowRegion><flowPara
     style="stroke-width:0.75px"
     id="flowPara10148"></flowPara></flowRoot></svg>