<?xml version="1.0" encoding="UTF-8" standalone="no"?>
<svg
   xmlns:dc="http://purl.org/dc/elements/1.1/"
   xmlns:cc="http://creativecommons.org/ns#"
   xmlns:rdf="http://www.w3.org/1999/02/22-rdf-syntax-ns#"
   xmlns:svg="http://www.w3.org/2000/svg"
   xmlns="http://www.w3.org/2000/svg"
   xmlns:sodipodi="http://sodipodi.sourceforge.net/DTD/sodipodi-0.dtd"
   xmlns:inkscape="http://www.inkscape.org/namespaces/inkscape"
   enable-background="new 0 0 512 512"
   height="93.700645"
   id="Self_x5F_improvement"
   version="1.1"
   viewBox="0 0 48 93.700645"
   width="48"
   xml:space="preserve"
   sodipodi:docname="idea.svg"
   inkscape:version="0.92.4 (5da689c313, 2019-01-14)"><metadata
     id="metadata25"><rdf:RDF><cc:Work
         rdf:about=""><dc:format>image/svg+xml</dc:format><dc:type
           rdf:resource="http://purl.org/dc/dcmitype/StillImage" /><dc:title></dc:title></cc:Work></rdf:RDF></metadata><defs
     id="defs23" /><sodipodi:namedview
     pagecolor="#ffffff"
     bordercolor="#666666"
     borderopacity="1"
     objecttolerance="10"
     gridtolerance="10"
     guidetolerance="10"
     inkscape:pageopacity="0"
     inkscape:pageshadow="2"
     inkscape:window-width="1549"
     inkscape:window-height="885"
     id="namedview21"
     showgrid="false"
     inkscape:zoom="1.7213285"
     inkscape:cx="96.318034"
     inkscape:cy="178.38956"
     inkscape:window-x="0"
     inkscape:window-y="0"
     inkscape:window-maximized="0"
     inkscape:current-layer="Self_x5F_improvement" /><g
     id="g18"
     transform="matrix(0.19278064,0,0,0.19278064,-25.344645,-2.5932852)"><path
       d="m 380.417,258.812 c -1.904,-41.328 -25.76,-76.918 -60.197,-95.363 -2.717,-1.48 -5.514,-2.838 -8.369,-4.074 -13.947,-6.061 -29.33,-9.426 -45.504,-9.426 -60.75,0 -110.34,47.453 -113.891,107.328 l 0.044,-0.004 v 0.201 c 0,2.209 -0.122,12.92 -0.122,12.92 l -20.393,56.073 c -2.006,5.557 2.082,11.033 7.99,11.033 h 12.291 l -0.092,64.488 c 0,12.537 10.162,23.512 22.699,23.512 H 217.5 v 57.376 c 0,9.301 7.309,16.624 16.61,16.624 h 104.432 c 9.301,0 15.958,-7.323 15.958,-16.624 V 364.118 c 0,-16.357 4.8,-32.328 12.44,-46.793 7.984,-15.111 12.905,-32.229 13.339,-50.406 0.02,-0.912 0.148,-1.844 0.148,-2.775 10e-4,-1.786 0.072,-3.569 -0.01,-5.332 z M 305.614,272.5 H 223.03 c -20.684,0 -37.451,-16.52 -37.451,-37.206 0,-20.686 16.768,-37.329 37.451,-37.329 3.531,0 6.932,0.587 10.168,1.5 5.379,-14.092 18.984,-24.088 34.965,-24.088 15.496,0 28.793,9.429 34.488,22.847 0.98,-0.076 1.963,-0.142 2.963,-0.142 20.686,0 37.455,16.524 37.455,37.209 0,20.685 -16.769,37.209 -37.455,37.209 z"
       id="path2"
       inkscape:connector-curvature="0" /><path
       d="m 326.093,114.5 h 8.407 v 7.737 c 0,3.416 2.084,6.188 5.5,6.188 3.416,0 5.5,-2.771 5.5,-6.188 V 114.5 h 9.243 c 3.416,0 6.188,-3.084 6.188,-6.5 0,-3.416 -2.771,-6.5 -6.188,-6.5 H 345.5 v -7.915 c 0,-3.418 -2.084,-6.188 -5.5,-6.188 -3.416,0 -5.5,2.77 -5.5,6.188 v 7.915 h -8.407 c -3.418,0 -6.188,3.084 -6.188,6.5 0,3.416 2.77,6.5 6.188,6.5 z"
       id="path4"
       inkscape:connector-curvature="0" /><path
       d="m 188.245,40.5 h 6.255 v 8.142 c 0,3.416 3.584,6.188 7,6.188 3.416,0 7,-2.771 7,-6.188 V 40.5 h 8.397 c 3.416,0 6.188,-3.084 6.188,-6.5 0,-3.416 -2.771,-6.5 -6.188,-6.5 H 208.5 v -7.511 c 0,-3.416 -3.584,-6.188 -7,-6.188 -3.416,0 -7,2.771 -7,6.188 V 27.5 h -6.255 c -3.418,0 -6.188,3.084 -6.188,6.5 0,3.416 2.77,6.5 6.188,6.5 z"
       id="path6"
       inkscape:connector-curvature="0" /><rect
       height="27"
       width="27"
       x="203.5"
       y="220.5"
       id="rect8" /><polygon
       points="248.75,245.5 282.513,245.5 265.63,219.754 "
       id="polygon10" /><circle
       cx="313.10101"
       cy="233.48599"
       r="14.181"
       id="circle12" /><path
       d="m 259.745,126.11 c 1.02,0.975 2.328,1.459 3.635,1.459 1.311,0 2.619,-0.488 3.637,-1.461 l 19.479,-18.609 c 1.564,-1.492 2.057,-3.218 1.25,-5.23 -0.803,-2.008 -2.723,-2.769 -4.887,-2.769 h -13.313 l -0.07,-40.361 c -0.006,-3.414 -2.775,-7.639 -6.188,-7.639 -0.004,0 -0.006,0 -0.012,0 -3.416,3 -6.182,4.242 -6.176,7.66 l 0.07,40.34 H 243.9 c -2.164,0 -4.084,0.761 -4.889,2.771 -0.805,2.01 -0.314,4.003 1.25,5.5 z"
       id="path14"
       inkscape:connector-curvature="0" /><path
       d="m 262.5,40.503 c 3.416,0 7,-2.77 7,-6.188 V 19.64 c 0,-3.416 -3.584,-6.188 -7,-6.188 -3.416,0 -7,2.771 -7,6.188 v 14.676 c 0,3.417 3.584,6.187 7,6.187 z"
       id="path16"
       inkscape:connector-curvature="0" /></g></svg>